<?xml version="1.0" encoding="UTF-8" standalone="no"?>
<!-- Created with Inkscape (http://www.inkscape.org/) -->

<svg
   width="25mm"
   height="19.520473mm"
   viewBox="0 0 24.999999 19.520474"
   version="1.1"
   id="svg5"
   xmlns="http://www.w3.org/2000/svg"
   xmlns:svg="http://www.w3.org/2000/svg">
  <defs
     id="defs2" />
  <path
     style="fill:#666666;fill-opacity:1;stroke:none;stroke-width:0.0455172px;stroke-linecap:butt;stroke-linejoin:miter;stroke-opacity:1"
     d="M 0.50634915,6.2386935 C 4.8535749,11.254648 2.8026298,15.420449 -2.0795804e-7,17.656833 4.2423537,20.408111 6.7943628,16.169194 6.8493067,12.030391 7.461881,8.4255284 3.662288,3.4691343 0.50634915,6.2386935 Z"
     id="path869" />
  <path
     style="fill:#666666;fill-opacity:1;stroke:none;stroke-width:0.0455172px;stroke-linecap:butt;stroke-linejoin:miter;stroke-opacity:1"
     d="M 10.405184,17.188158 C 9.7862157,17.746885 8.54286,18.669794 9.0567661,19.343744 9.892596,19.974185 11.494327,18.764068 13.12812,18.123754 Z"
     id="path9752" />
  <path
     style="fill:#666666;fill-opacity:1;stroke:none;stroke-width:0.0455172px;stroke-linecap:butt;stroke-linejoin:miter;stroke-opacity:1"
     d="M 8.4420156,6.3624666 10.320961,7.5999295 C 7.4486758,9.1288877 5.8568038,9.6120085 8.4420156,6.3624666 Z"
     id="path17306" />
  <path
     style="fill:#808080;fill-opacity:1;stroke:none;stroke-width:0.0455172px;stroke-linecap:butt;stroke-linejoin:miter;stroke-opacity:1"
     d="m 22.560804,11.749214 c 0.06678,3.675834 -2.425156,6.085781 -5.569955,6.669593 C 13.846051,19.002619 8.8644512,17.550847 6.0699487,14.754857 4.759519,13.562851 4.1066825,12.846331 4.1434818,11.955864 4.161019,11.531543 4.386742,11.049221 4.8978801,10.412177 6.9484816,8.2362485 9.2895649,6.5481547 11.629513,5.7750698 c 1.127001,-0.3723452 2.123559,0.037706 3.333961,-0.3726802 6.069503,0.4841749 7.567575,4.7090124 7.59733,6.3468244 z"
     id="path26826" />
  <path
     id="path23216"
     style="fill:#1d1c1a;fill-opacity:1;stroke:none;stroke-width:0.0455172px;stroke-linecap:butt;stroke-linejoin:miter;stroke-opacity:1"
     d="m 14.790662,16.173352 c 0.37611,-1.168336 1.583588,-1.598561 2.77824,-1.576478 1.194653,-0.02208 2.402131,0.408142 2.77824,1.576478 -1.02702,-0.152561 -1.89801,-0.256471 -2.77824,-0.274881 -0.880229,0.01841 -1.751219,0.12232 -2.77824,0.274881 z" />
  <path
     id="path60216"
     style="fill:#795f19;fill-opacity:1;stroke:#5d440c;stroke-width:0.462865;stroke-linecap:round;stroke-opacity:1;paint-order:fill markers stroke"
     d="M 17.267795,0.23316223 C 17.136419,0.27189866 16.777811,0.43804131 16.475116,0.79317728 16.171273,1.1496578 15.922906,1.6951278 15.558978,1.7300257 14.980352,1.7855029 14.429592,0.58682323 13.865205,0.48581806 13.040692,0.40213848 12.243737,1.6002551 12.085143,3.1619117 c -0.158591,1.5616129 0.381196,2.8954366 1.205673,2.9792435 1.710773,0.6790876 3.661167,-0.09105 4.890524,-0.29746 2.165552,-1.1069818 0.597417,-5.71097907 -0.913545,-5.61053297 z" />
  <path
     id="path34686"
     style="fill:#5d440c;fill-opacity:1;stroke:none;stroke-width:0.0455172px;stroke-linecap:butt;stroke-linejoin:miter;stroke-opacity:0.992157"
     d="M 6.6464202,2.4991675 C 6.2303937,2.5154866 5.960691,2.9639796 6.1577322,3.4871228 6.8199291,5.2452514 9.3580677,8.5001825 15.546016,8.5174878 21.733964,8.500177 24.272013,5.2452514 24.93421,3.4871228 25.167741,2.8671003 24.745694,2.3519683 24.2014,2.5368615 23.936634,2.6268017 18.430521,4.3850091 15.546016,4.4058234 12.661513,4.3850146 7.155308,2.6268017 6.8905417,2.5368615 c -0.08505,-0.02889 -0.1670796,-0.04072 -0.2441215,-0.03769 z" />
  <path
     id="path44423"
     style="fill:#795f19;fill-opacity:1;stroke:#5d440c;stroke-width:0.191614;stroke-linecap:butt;stroke-linejoin:miter;stroke-opacity:1"
     d="m 12.016315,4.3141623 c -0.165001,0.00648 -0.271971,0.1843529 -0.19382,0.3918399 0.262637,0.6973041 1.269309,1.9882656 3.723552,1.9951282 2.454245,-0.00687 3.460879,-1.2978241 3.723516,-1.9951282 0.09262,-0.2459111 -0.07476,-0.450221 -0.290642,-0.3768888 -0.105011,0.035668 -2.288828,0.6395938 -3.432874,0.6478494 -1.144042,-0.0083 -3.327899,-0.6121785 -3.432908,-0.6478494 -0.03373,-0.011462 -0.06627,-0.016147 -0.09682,-0.014953 z" />
  <g
     id="g2577"
     transform="translate(7.321508,-1.4543651)">
    <rect
       style="fill:#1d1c1a;fill-opacity:1;stroke-width:2.34167;stroke-linecap:round;paint-order:fill markers stroke"
       id="rect970"
       width="0.91504955"
       height="2.7451487"
       x="14.261147"
       y="1.4898427"
       transform="rotate(45)" />
    <rect
       style="fill:#1d1c1a;fill-opacity:1;stroke-width:2.34167;stroke-linecap:round;paint-order:fill markers stroke"
       id="rect2573"
       width="0.91504955"
       height="2.7451487"
       x="2.4048922"
       y="13.346097"
       transform="matrix(-0.70710678,0.70710678,0.70710678,0.70710678,0,0)" />
  </g>
  <g
     id="g2663"
     transform="translate(11.028494,-1.4543651)">
    <rect
       style="fill:#1d1c1a;fill-opacity:1;stroke-width:2.34167;stroke-linecap:round;paint-order:fill markers stroke"
       id="rect2659"
       width="0.91504955"
       height="2.7451487"
       x="14.261147"
       y="1.4898427"
       transform="rotate(45)" />
    <rect
       style="fill:#1d1c1a;fill-opacity:1;stroke-width:2.34167;stroke-linecap:round;paint-order:fill markers stroke"
       id="rect2661"
       width="0.91504955"
       height="2.7451487"
       x="2.4048922"
       y="13.346097"
       transform="matrix(-0.70710678,0.70710678,0.70710678,0.70710678,0,0)" />
  </g>
</svg>
